<?xml version="1.0" encoding="utf-8"?>
<!-- Generator: Adobe Illustrator 16.0.4, SVG Export Plug-In . SVG Version: 6.00 Build 0)  -->
<!DOCTYPE svg PUBLIC "-//W3C//DTD SVG 1.1//EN" "http://www.w3.org/Graphics/SVG/1.1/DTD/svg11.dtd">
<svg version="1.1" id="Capa_1" xmlns="http://www.w3.org/2000/svg" xmlns:xlink="http://www.w3.org/1999/xlink" x="0px" y="0px"
	 width="467.115px" height="131.111px" viewBox="0 0 467.115 131.111" enable-background="new 0 0 467.115 131.111"
	 xml:space="preserve">
<rect x="359.157" y="6.748" fill="#E0004D" width="9.349" height="21.219"/>
<path fill="#E0004D" d="M254.324,96.241c-4.648,10.848-15.421,18.448-27.97,18.448c-16.801,0-30.42-13.62-30.42-30.42
	s13.619-30.42,30.42-30.42c12.549,0,23.321,7.6,27.97,18.449l9.329-3.098c-5.965-14.749-20.412-25.159-37.299-25.159
	c-22.217,0-40.228,18.011-40.228,40.228s18.011,40.228,40.228,40.228c16.887,0,31.334-10.41,37.299-25.159L254.324,96.241z"/>
<path fill="#E0004D" d="M139.791,44.058c-12.408,0-23.501,5.621-30.88,14.452V6.748h-9.348v118.206h9.348V110.06
	c7.379,8.832,18.472,14.453,30.88,14.453c22.217,0,40.228-18.011,40.228-40.228S162.008,44.058,139.791,44.058 M139.791,114.705
	c-16.8,0-30.42-13.62-30.42-30.42s13.62-30.42,30.42-30.42c16.8,0,30.42,13.62,30.42,30.42S156.591,114.705,139.791,114.705"/>
<path fill="#E0004D" d="M338.019,6.748V58.51c-7.379-8.831-18.473-14.452-30.88-14.452c-22.218,0-40.229,18.01-40.229,40.227
	s18.011,40.228,40.229,40.228c12.407,0,23.501-5.621,30.88-14.453v14.894h9.348V6.748H338.019z M307.139,114.705
	c-16.801,0-30.42-13.62-30.42-30.42s13.619-30.42,30.42-30.42c16.8,0,30.42,13.62,30.42,30.42S323.938,114.705,307.139,114.705"/>
<path fill="#E0004D" d="M81.147,44.058V58.51c-7.379-8.831-18.471-14.452-30.88-14.452c-22.217,0-40.228,18.01-40.228,40.227
	s18.011,40.228,40.228,40.228c12.409,0,23.501-5.621,30.88-14.453v14.894h9.348V44.058H81.147z M50.268,114.705
	c-16.801,0-30.42-13.62-30.42-30.42s13.619-30.42,30.42-30.42c16.801,0,30.42,13.62,30.42,30.42S67.068,114.705,50.268,114.705"/>
<rect x="359.157" y="44.057" fill="#E0004D" width="9.349" height="80.896"/>
<path fill="#E0004D" d="M418.642,44.057c-12.189,0-22.847,5.428-30.001,13.992V44.057h-9.348v80.896h9.348V79.327
	c2.369-14.44,14.891-25.462,30.001-25.462c15.916,0,29.454,12.225,30.786,27.796v43.292h9.347V81.661
	C457.422,60.668,439.977,44.057,418.642,44.057"/>
</svg>
